<?xml version="1.0" standalone="no"?>
<!DOCTYPE svg PUBLIC "-//W3C//DTD SVG 20010904//EN"
 "http://www.w3.org/TR/2001/REC-SVG-20010904/DTD/svg10.dtd">
<svg version="1.0" xmlns="http://www.w3.org/2000/svg"
 width="498.000000pt" height="163.000000pt" viewBox="0 0 498.000000 163.000000"
 preserveAspectRatio="xMidYMid meet">

<g transform="translate(0.000000,163.000000) scale(0.100000,-0.100000)"
fill="#000000" stroke="none">
<path d="M4174 1395 c-107 -23 -190 -80 -231 -158 -22 -42 -29 -174 -13 -232
17 -60 80 -130 149 -164 31 -16 108 -41 171 -56 195 -46 236 -74 234 -165 -1
-95 -63 -135 -196 -128 -99 5 -160 33 -228 102 -24 25 -49 46 -55 46 -6 0 -37
-32 -68 -70 l-57 -70 45 -49 c95 -101 227 -146 415 -139 99 4 123 8 175 32 73
33 118 75 153 141 23 44 26 62 27 150 0 92 -2 104 -30 154 -54 98 -120 134
-323 177 -179 38 -210 58 -219 138 -5 40 -2 48 24 75 74 74 251 67 357 -14
l45 -34 34 42 c18 23 43 56 55 74 l22 31 -42 36 c-94 81 -285 116 -444 81z"/>
<path d="M453 1379 c-48 -23 -89 -68 -110 -116 -10 -25 -13 -120 -13 -434 0
-441 0 -437 63 -500 65 -65 55 -64 467 -67 206 -2 394 0 417 3 53 8 116 50
151 101 l27 39 0 426 0 425 -28 42 c-15 23 -46 54 -69 69 l-42 28 -410 3
c-401 2 -412 2 -453 -19z m627 -170 c99 -21 120 -41 135 -128 4 -24 16 -52 26
-62 23 -23 26 -95 4 -126 -11 -16 -15 -60 -17 -189 -3 -167 -3 -169 -25 -172
-19 -3 -23 -10 -23 -36 0 -39 -15 -56 -50 -56 -35 0 -50 17 -50 57 l0 33 -177
-2 -178 -3 -5 -40 c-4 -35 -9 -40 -33 -43 -38 -5 -57 14 -57 54 0 31 -3 34
-29 34 -38 0 -41 12 -41 195 -1 116 -4 154 -15 169 -22 29 -19 102 4 125 11
11 23 41 26 68 13 92 49 118 184 133 84 9 251 3 321 -11z"/>
<path d="M710 1125 l0 -25 180 0 180 0 0 25 0 25 -180 0 -180 0 0 -25z"/>
<path d="M650 940 l0 -130 243 2 242 3 0 125 0 125 -242 3 -243 2 0 -130z"/>
<path d="M681 676 c-38 -46 25 -111 69 -71 25 23 26 47 2 68 -23 21 -56 22
-71 3z"/>
<path d="M1036 677 c-28 -20 -18 -69 16 -81 22 -8 32 -6 48 9 50 45 -9 112
-64 72z"/>
<path d="M1930 1305 l0 -84 153 -3 152 -3 3 -447 2 -448 100 0 100 0 2 448 3
447 153 3 152 3 0 84 0 85 -410 0 -410 0 0 -85z"/>
<path d="M2930 855 l0 -537 293 4 c335 5 364 10 447 85 66 59 93 125 94 228 0
52 -6 93 -16 116 -25 56 -83 114 -138 138 -28 12 -50 24 -50 27 0 3 22 26 49
50 61 55 86 120 78 199 -9 93 -50 151 -137 196 -44 23 -53 24 -332 27 l-288 3
0 -536z m498 362 c37 -20 62 -68 62 -117 0 -49 -25 -97 -62 -116 -24 -13 -66
-19 -160 -22 l-128 -5 0 143 0 142 128 -4 c97 -3 135 -8 160 -21z m58 -433
c52 -38 67 -69 67 -132 0 -72 -23 -117 -73 -143 -29 -16 -58 -19 -187 -19
l-153 0 0 161 0 161 159 -4 c143 -3 163 -5 187 -24z"/>
<path d="M1640 835 l0 -545 30 0 30 0 0 545 0 545 -30 0 -30 0 0 -545z"/>
</g>
</svg>
